<?xml version="1.0" encoding="UTF-8" standalone="no"?>
<svg
   width="100%"
   height="100%"
   viewBox="0 0 400 400"
   version="1.1"
   xml:space="preserve"
   style="fill-rule:evenodd;clip-rule:evenodd;stroke-linejoin:round;stroke-miterlimit:2;"
   id="svg1"
   sodipodi:docname="twitter.svg"
   inkscape:version="1.4 (e7c3feb, 2024-10-09)"
   xmlns:inkscape="http://www.inkscape.org/namespaces/inkscape"
   xmlns:sodipodi="http://sodipodi.sourceforge.net/DTD/sodipodi-0.dtd"
   xmlns="http://www.w3.org/2000/svg"
   xmlns:svg="http://www.w3.org/2000/svg"><defs
   id="defs1">
        
    </defs><sodipodi:namedview
   id="namedview1"
   pagecolor="#ffffff"
   bordercolor="#000000"
   borderopacity="0.25"
   inkscape:showpageshadow="2"
   inkscape:pageopacity="0.0"
   inkscape:pagecheckerboard="0"
   inkscape:deskcolor="#d1d1d1"
   inkscape:zoom="1.4089103"
   inkscape:cx="211.1561"
   inkscape:cy="204.76818"
   inkscape:window-width="1920"
   inkscape:window-height="1008"
   inkscape:window-x="0"
   inkscape:window-y="0"
   inkscape:window-maximized="1"
   inkscape:current-layer="svg1" />
    <path
   id="path1"
   style="fill-opacity:1"
   d="M 200 0 C 89.617 0 0 89.617 0 200 C 0 310.383 89.617 400 200 400 C 310.383 400 400 310.383 400 200 C 400 89.617 310.383 0 200 0 z M 249.67188 90.761719 C 264.63599 90.761719 279.11004 96.689589 289.76758 107.10352 C 300.34765 104.77248 310.43846 100.78526 319.79102 95.238281 C 321.32927 94.326705 323.27089 94.460344 324.66797 95.574219 C 326.06676 96.687234 326.62996 98.550161 326.08594 100.25195 C 323.65934 107.84419 319.68456 114.78127 314.4707 120.67773 C 318.87454 119.40376 323.18487 117.83589 327.37695 115.97656 C 329.12953 115.20013 331.18225 115.67383 332.41406 117.14062 C 333.64758 118.60657 333.76208 120.71025 332.69727 122.30273 C 325.68779 132.78811 317.07341 141.91123 307.06836 149.44922 C 307.11646 151.03137 307.14062 152.6196 307.14062 154.19141 C 307.14062 191.81602 292.59739 229.89533 267.23828 258.66406 C 246.90193 281.73602 210.41625 309.23828 152.09375 309.23828 C 122.42636 309.23828 93.539582 300.77053 68.556641 284.75195 C 66.868612 283.66992 66.152398 281.56546 66.828125 279.67773 C 67.503853 277.79086 69.400631 276.61962 71.384766 276.85547 C 75.378869 277.32805 79.459778 277.56641 83.517578 277.56641 C 102.96472 277.56641 121.4901 272.2517 137.68945 262.10547 C 118.15795 257.71196 102.00178 243.30074 95.726562 223.70898 C 95.262592 222.26284 95.596374 220.67923 96.603516 219.54297 C 97.608925 218.40586 99.141898 217.88304 100.63281 218.16797 C 102.07894 218.44429 103.53377 218.65531 104.99023 218.80078 C 88.036819 208.69071 76.949219 190.14225 76.949219 169.53906 C 76.949219 169.28168 76.948878 169.02737 76.955078 168.77344 C 76.989509 167.26619 77.808769 165.88648 79.117188 165.13672 C 80.424734 164.38697 82.031492 164.37683 83.347656 165.10938 C 85.799205 166.47029 88.368673 167.61645 91.015625 168.5332 C 82.310373 158.30003 77.380859 145.20328 77.380859 131.40039 C 77.380859 121.26621 80.065366 111.30634 85.140625 102.59766 C 85.851644 101.3779 87.116033 100.58479 88.523438 100.47461 C 89.929981 100.36184 91.303523 100.95085 92.195312 102.04492 C 117.21871 132.74011 153.65903 152.0058 192.85547 155.44727 C 192.54386 153.00776 192.38672 150.53263 192.38672 148.04492 C 192.38672 116.45881 218.0849 90.761719 249.67188 90.761719 z " />
</svg>
